<svg xmlns="http://www.w3.org/2000/svg" xmlns:xlink="http://www.w3.org/1999/xlink"><defs><symbol viewBox="0 0 430.123 430.123" id="behance-logo"><path d="M388.432 119.12H280.659V92.35h107.782v26.77h-.009zm-179.52 109.775c6.954 10.771 10.429 23.849 10.429 39.203 0 15.878-3.918 30.122-11.889 42.704-5.071 8.326-11.367 15.359-18.932 21.021-8.52 6.548-18.607 11.038-30.203 13.437-11.633 2.403-24.224 3.617-37.787 3.617H0V81.247h129.25c32.579.53 55.676 9.969 69.315 28.506 8.184 11.369 12.239 25.011 12.239 40.868 0 16.362-4.104 29.454-12.368 39.401-4.597 5.577-11.388 10.65-20.378 15.229 13.617 4.985 23.949 12.835 30.854 23.644zM61.722 186.76h56.632c11.638 0 21.046-2.212 28.292-6.634 7.241-4.415 10.854-12.263 10.854-23.531 0-12.449-4.784-20.712-14.375-24.689-8.244-2.763-18.792-4.186-31.591-4.186H61.722v59.04zm101.231 77.515c0-13.902-5.682-23.513-17.023-28.67-6.342-2.931-15.29-4.429-26.763-4.536H61.722v71.322h56.556c11.619 0 20.612-1.521 27.102-4.694 11.704-5.834 17.573-16.937 17.573-33.422zm265.466-43.539c1.302 8.756 1.891 21.46 1.652 38.065H290.493c.77 19.266 7.421 32.739 20.035 40.449 7.607 4.835 16.83 7.196 27.63 7.196 11.388 0 20.67-2.879 27.815-8.797 3.893-3.137 7.327-7.565 10.296-13.152h51.16c-1.34 11.379-7.5 22.92-18.57 34.648-17.151 18.641-41.205 27.988-72.097 27.988-25.52 0-48.011-7.883-67.533-23.592C249.772 307.777 240 282.211 240 246.746c0-33.257 8.773-58.712 26.378-76.43 17.67-17.751 40.474-26.586 68.583-26.586 16.661 0 31.68 2.978 45.079 8.965 13.357 5.993 24.396 15.425 33.09 28.388 7.868 11.416 12.928 24.616 15.289 39.653zm-50.357 4.994c-.938-13.322-5.386-23.405-13.395-30.296-7.943-6.91-17.866-10.379-29.706-10.379-12.886 0-22.836 3.708-29.906 10.996-7.118 7.273-11.547 17.161-13.362 29.68h86.369v-.001z" /></symbol><symbol viewBox="0 0 508.52 508.52" id="dribble-logo"><path d="M254.26 0C114.067 0 0 114.067 0 254.26s114.067 254.26 254.26 254.26 254.26-114.067 254.26-254.26S394.452 0 254.26 0zm168.097 117.246c30.257 36.963 48.532 84.033 49.009 135.298-7.183-1.526-78.916-16.082-151.221-6.992l-4.672-11.219a683.718 683.718 0 0 0-14.397-31.465c80.314-32.768 116.705-79.425 121.281-85.622zM254.26 37.408c55.174 0 105.613 20.69 143.943 54.729-3.877 5.562-36.55 49.485-113.781 78.439-35.596-65.377-75.038-119.089-81.045-127.13a216.764 216.764 0 0 1 50.883-6.038zm-92.328 20.627c5.721 7.85 44.527 61.626 80.505 125.604-101.577 26.983-191.044 26.602-200.77 26.475 14.079-67.411 59.497-123.411 120.265-152.079zM37.058 254.578l.095-6.643c9.503.222 114.767 1.557 223.177-30.893a708.736 708.736 0 0 1 17.639 36.868l-8.581 2.574c-111.97 36.2-171.562 134.917-176.52 143.307-34.642-38.488-55.778-89.403-55.81-145.213zm217.17 217.169c-50.185 0-96.46-17.099-133.296-45.83 3.909-7.946 47.896-92.932 170.386-135.616l1.43-.477c30.511 79.202 43.065 145.627 46.339 164.697-26.03 11.092-54.729 17.258-84.859 17.226zm121.377-37.122c-2.225-13.222-13.825-76.786-42.175-154.844 68.046-10.901 127.829 6.96 135.266 9.312-9.725 60.387-44.336 112.606-93.091 145.532z" /></symbol><symbol viewBox="0 0 430.113 430.114" id="facebook-logo"><path d="M158.081 83.3v59.218h-43.385v72.412h43.385v215.183h89.122V214.936h59.805s5.601-34.721 8.316-72.685H247.54V92.74c0-7.4 9.717-17.354 19.321-17.354h48.557V.001h-66.021C155.878-.004 158.081 72.48 158.081 83.3z" /></symbol><symbol viewBox="0 0 430.117 430.117" id="linkedin-logo"><path d="M430.117 261.543V420.56h-92.188V272.193c0-37.271-13.334-62.707-46.703-62.707-25.473 0-40.632 17.142-47.301 33.724-2.432 5.928-3.058 14.179-3.058 22.477V420.56h-92.219s1.242-251.285 0-277.32h92.21v39.309c-.187.294-.43.611-.606.896h.606v-.896c12.251-18.869 34.13-45.824 83.102-45.824 60.673-.001 106.157 39.636 106.157 124.818zM52.183 9.558C20.635 9.558 0 30.251 0 57.463c0 26.619 20.038 47.94 50.959 47.94h.616c32.159 0 52.159-21.317 52.159-47.94-.606-27.212-20-47.905-51.551-47.905zM5.477 420.56h92.184V143.24H5.477v277.32z" /></symbol><symbol viewBox="0 0 24 24" id="twitter-logo"><path d="M24 4.557a9.83 9.83 0 0 1-2.828.775 4.932 4.932 0 0 0 2.165-2.724 9.864 9.864 0 0 1-3.127 1.195 4.916 4.916 0 0 0-3.594-1.555c-3.179 0-5.515 2.966-4.797 6.045A13.978 13.978 0 0 1 1.671 3.149a4.93 4.93 0 0 0 1.523 6.574 4.903 4.903 0 0 1-2.229-.616c-.054 2.281 1.581 4.415 3.949 4.89a4.935 4.935 0 0 1-2.224.084 4.928 4.928 0 0 0 4.6 3.419A9.9 9.9 0 0 1 0 19.54a13.94 13.94 0 0 0 7.548 2.212c9.142 0 14.307-7.721 13.995-14.646A10.025 10.025 0 0 0 24 4.557z" /></symbol></defs></svg>